<svg xmlns="http://www.w3.org/2000/svg" fill="none" viewBox="0 0 48 48">
  <path fill="currentColor" fill-rule="evenodd" d="M24.82 8.02h-.01C16.145 7.607 8.4 14.68 8.015 23.255v.006c-.388 8.391 6.332 16.428 15.207 16.707l.05.002.05.003c8.593.486 16.274-6.362 16.66-15.234v-.003C40.394 15.48 32.816 8.38 24.82 8.02Zm.179-3.998C14.139 3.506 4.504 12.275 4.02 23.076c-.483 10.447 7.8 20.538 19.078 20.894 10.828.613 20.398-7.964 20.882-19.055.516-11.639-8.959-20.441-18.981-20.892Z" clip-rule="evenodd"/>
  <path fill="currentColor" fill-rule="evenodd" d="M13.586 14.591A2 2 0 0 1 15 14.005h6a2 2 0 0 1 0 4.002h-4v4.536h4a2 2 0 0 1 0 4.002h-4v5.469a2 2 0 1 1-4 0V16.006c0-.53.21-1.04.586-1.415Zm14.837 4.085c-.303.42-.423.985-.423 1.332 0 .347.12.912.423 1.332.23.319.629.669 1.577.669 2.252 0 3.852.983 4.823 2.332C35.72 25.588 36 27.026 36 28.012c0 .987-.28 2.423-1.177 3.67-.97 1.35-2.571 2.333-4.823 2.333-1.588 0-2.895-.49-3.888-1.323-.964-.808-1.508-1.834-1.797-2.734a2.001 2.001 0 0 1 3.808-1.224c.121.375.312.684.559.891.217.182.595.388 1.318.388.948 0 1.348-.35 1.577-.669.303-.42.423-.985.423-1.332 0-.347-.12-.912-.423-1.332-.23-.319-.629-.669-1.577-.669-2.252 0-3.852-.984-4.823-2.333C24.28 22.431 24 20.995 24 20.008c0-.987.28-2.424 1.177-3.67.97-1.35 2.571-2.333 4.823-2.333 1.588 0 2.895.49 3.888 1.323.964.808 1.508 1.834 1.797 2.733a2.001 2.001 0 0 1-3.808 1.225c-.121-.376-.312-.684-.558-.891-.218-.182-.596-.388-1.319-.388-.948 0-1.348.35-1.577.669Z" clip-rule="evenodd"/>
</svg>
