<svg xmlns="http://www.w3.org/2000/svg" fill="none" viewBox="0 0 48 48">
  <path fill="currentColor" d="m32.556 5.889 3.222 3.222-4.845 4.8a2.24 2.24 0 0 0 0 3.156 2.24 2.24 0 0 0 3.156 0l4.8-4.845 3.222 3.222c.689.69 1.889.2 1.889-.8V5.111A1.1 1.1 0 0 0 42.889 4h-9.533c-1 0-1.49 1.2-.8 1.889ZM5.889 15.444l3.222-3.222 4.8 4.845a2.24 2.24 0 0 0 3.156 0 2.24 2.24 0 0 0 0-3.156l-4.845-4.8 3.222-3.222c.69-.689.2-1.889-.8-1.889H5.111A1.1 1.1 0 0 0 4 5.111v9.533c0 1 1.2 1.49 1.889.8Zm9.555 26.667-3.222-3.222 4.845-4.8a2.24 2.24 0 0 0 0-3.156 2.24 2.24 0 0 0-3.156 0l-4.8 4.845-3.222-3.222c-.689-.69-1.889-.2-1.889.8v9.533A1.1 1.1 0 0 0 5.111 44h9.533c1 0 1.49-1.2.8-1.889Zm26.667-9.555-3.222 3.222-4.8-4.845a2.24 2.24 0 0 0-3.156 0 2.24 2.24 0 0 0 0 3.156l4.845 4.8-3.222 3.222c-.69.689-.2 1.889.8 1.889h9.533A1.1 1.1 0 0 0 44 42.889v-9.533c0-1-1.2-1.49-1.889-.8Z"/>
</svg>
