<svg xmlns="http://www.w3.org/2000/svg" fill="none" viewBox="0 0 48 48">
  <path fill="currentColor" d="M39.556 8.444H35.11V6.222A2.222 2.222 0 0 0 32.89 4H15.11a2.222 2.222 0 0 0-2.222 2.222v2.222H8.444C6 8.444 4 10.444 4 12.89v2.222C4 20.778 8.267 25.4 13.756 26.09c1.4 3.333 4.4 5.844 8.022 6.578v6.889H15.11a2.222 2.222 0 1 0 0 4.444h17.78a2.222 2.222 0 1 0 0-4.444h-6.667v-6.89a11.132 11.132 0 0 0 8.022-6.577C39.734 25.4 44 20.778 44 15.11v-2.22c0-2.445-2-4.445-4.444-4.445ZM8.444 15.111V12.89h4.445v8.489C10.31 20.444 8.444 18 8.444 15.11ZM24 28.444c-3.667 0-6.667-3-6.667-6.666V8.444h13.334v13.334c0 3.666-3 6.666-6.667 6.666Zm15.556-13.333c0 2.889-1.867 5.333-4.445 6.267v-8.49h4.445v2.223Z"/>
</svg>
