<svg xmlns="http://www.w3.org/2000/svg" fill="none" viewBox="0 0 48 48">
  <path fill="currentColor" d="M20.475 16.925 9.288 5.76a2.494 2.494 0 0 0-3.525 3.528L16.925 20.45l3.55-3.525ZM32.665 4c-.892 0-1.338 1.077-.708 1.707L35.35 9.1 5.762 38.712a2.494 2.494 0 0 0 3.526 3.526L38.9 12.65l3.393 3.393c.63.63 1.707.184 1.707-.707V5a1 1 0 0 0-1-1H32.664Zm-1.59 23.525L27.55 31.05l7.825 7.825-3.418 3.418c-.63.63-.184 1.707.707 1.707H43a1 1 0 0 0 1-1V32.664c0-.89-1.077-1.337-1.707-.707L38.9 35.35l-7.825-7.825Z"/>
</svg>
