<svg xmlns="http://www.w3.org/2000/svg" fill="none" viewBox="0 0 48 48">
  <path fill="currentColor" d="M21.774 16.773v8.18c0 .777.422 1.51 1.089 1.91l6.934 4.113c.8.466 1.823.2 2.29-.578.466-.8.222-1.823-.578-2.29l-6.379-3.8V16.75a1.71 1.71 0 0 0-1.69-1.645 1.68 1.68 0 0 0-1.666 1.667ZM44 18.44V6.682c0-1-1.2-1.489-1.89-.778l-3.956 3.957c-4.022-4.023-9.757-6.335-16.025-5.78-9.312.845-16.98 8.336-18.003 17.648C2.793 33.776 12.194 44 23.996 44c10.202 0 18.626-7.646 19.848-17.514a2.232 2.232 0 0 0-2.222-2.49 2.187 2.187 0 0 0-2.178 1.912c-.956 7.757-7.646 13.758-15.67 13.647-8.246-.111-15.202-7.068-15.336-15.336-.133-8.669 6.912-15.78 15.559-15.78 4.29 0 8.179 1.755 11.001 4.556l-4.645 4.645c-.711.711-.222 1.911.778 1.911H42.89A1.1 1.1 0 0 0 44 18.44Z"/>
</svg>
