<svg xmlns="http://www.w3.org/2000/svg" fill="none" viewBox="0 0 48 48">
  <path fill="currentColor" d="M23.485 4.006c-5.888.155-11.109 2.844-14.664 7.021L5.89 8.117c-.69-.69-1.889-.2-1.889.8v9.531a1.1 1.1 0 0 0 1.11 1.111h9.532c1 0 1.489-1.2.778-1.889l-3.444-3.466c2.866-3.488 7.177-5.754 12.02-5.754 9.598 0 17.197 8.754 15.242 18.686-1.2 6.155-6.244 11.065-12.398 12.154-8.443 1.51-15.952-3.867-17.885-11.465a2.24 2.24 0 0 0-2.133-1.6c-1.444 0-2.533 1.355-2.178 2.733C6.844 37.6 14.664 44 23.996 44c11.242 0 20.307-9.265 19.996-20.575-.31-10.843-9.665-19.686-20.507-19.42Z"/>
  <path fill="currentColor" fill-rule="evenodd" d="M23.995 11.783c1.227 0 2.222.995 2.222 2.222v.297c.744.214 1.407.54 1.985.964a6.001 6.001 0 0 1 2.079 2.786 2.222 2.222 0 0 1-4.171 1.533 1.56 1.56 0 0 0-.537-.736c-.242-.177-.702-.4-1.578-.4-1.17 0-1.63.393-1.839.647a1.765 1.765 0 0 0-.383 1.019c0 .227.099.673.383 1.018.21.255.669.648 1.84.648 2.384 0 4.146.903 5.27 2.268a6.194 6.194 0 0 1 1.395 3.843 6.19 6.19 0 0 1-1.395 3.841c-.74.9-1.758 1.6-3.049 1.971v.298a2.222 2.222 0 1 1-4.444 0v-.297a6.267 6.267 0 0 1-1.984-.965 6.001 6.001 0 0 1-2.08-2.786 2.222 2.222 0 0 1 4.172-1.533c.106.289.279.547.536.736.243.178.703.4 1.578.4 1.17 0 1.63-.392 1.84-.647.284-.346.382-.792.382-1.018 0-.227-.098-.673-.382-1.019-.21-.255-.67-.648-1.84-.648-2.384 0-4.147-.903-5.27-2.268a6.194 6.194 0 0 1-1.395-3.842c0-1.07.346-2.567 1.395-3.842.74-.9 1.758-1.599 3.048-1.97v-.298c0-1.228.995-2.222 2.222-2.222Z" clip-rule="evenodd"/>
</svg>
