<svg xmlns="http://www.w3.org/2000/svg" fill="none" viewBox="0 0 48 48">
  <path fill="currentColor" fill-rule="evenodd" d="M4.02 23.076C4.504 12.276 14.14 3.506 25 4.023c10.022.451 19.497 9.253 18.98 20.892-.483 11.091-10.053 19.668-20.881 19.055-11.28-.355-19.561-10.446-19.078-20.893Zm15.332 10.092c1.305.555 2.848.832 4.589.832 1.226 0 2.334-.158 3.402-.436a8.53 8.53 0 0 0 2.848-1.307c.831-.594 1.504-1.306 1.978-2.178a6.169 6.169 0 0 0 .752-3.01c0-.198-.08-.316-.198-.435a.594.594 0 0 0-.435-.159H27.62c-.277 0-.475.04-.633.159-.119.119-.238.317-.317.594-.198.752-.554 1.307-1.028 1.584-.475.277-1.029.435-1.701.435-.831 0-1.464-.198-1.939-.633-.514-.436-.752-1.188-.791-2.297a91.914 91.914 0 0 1 0-4.673c.04-1.11.317-1.862.791-2.297.475-.436 1.108-.634 1.939-.634.672 0 1.226.158 1.7.435.476.278.832.832 1.069 1.624.079.277.198.476.316.594.12.12.317.159.594.159h4.747c.158 0 .317-.08.435-.198A.636.636 0 0 0 33 20.89c-.04-1.148-.277-2.178-.752-3.01-.474-.832-1.147-1.544-1.978-2.138a8.53 8.53 0 0 0-2.848-1.307A13.652 13.652 0 0 0 23.98 14c-1.7 0-3.244.277-4.55.832-1.305.554-2.373 1.386-3.125 2.495-.79 1.109-1.186 2.495-1.265 4.158-.04.792-.04 1.624-.04 2.495 0 .452.01.893.02 1.318.01.394.02.775.02 1.138.079 1.703.474 3.128 1.226 4.237.752 1.11 1.78 1.94 3.086 2.495Z" clip-rule="evenodd"/>
</svg>
