<svg viewBox="0 0 48 48" fill="none" xmlns="http://www.w3.org/2000/svg">
<path fill="currentColor" d="M8.19954 42H39.8005C43.0319 42 45.0463 38.4651 43.4306 35.6499L27.6301 8.11142C26.0144 5.29619 21.9856 5.29619 20.3699 8.11142L4.56943 35.6499C2.95371 38.4651 4.96811 42 8.19954 42ZM24 27.183C22.8459 27.183 21.9017 26.2305 21.9017 25.0663V20.8329C21.9017 19.6687 22.8459 18.7162 24 18.7162C25.1541 18.7162 26.0983 19.6687 26.0983 20.8329V25.0663C26.0983 26.2305 25.1541 27.183 24 27.183ZM26.0983 33.6499C26.0983 34.7544 25.2029 35.6499 24.0983 35.6499H23.9017C22.7971 35.6499 21.9017 34.7544 21.9017 33.6499V33.4164C21.9017 32.3119 22.7971 31.4164 23.9017 31.4164H24.0983C25.2029 31.4164 26.0983 32.3119 26.0983 33.4164V33.6499Z"/>
</svg>
