<svg xmlns="http://www.w3.org/2000/svg" fill="none" viewBox="0 0 48 48">
  <path fill="currentColor" d="M24.003 44c2.227 0 4.048-1.846 4.048-4.103h-8.096c0 2.257 1.821 4.103 4.048 4.103Zm12.145-12.308V21.436c0-6.297-3.3-11.57-9.109-12.964V7.077C27.04 5.374 25.683 4 24.003 4s-3.036 1.374-3.036 3.077v1.395c-5.79 1.395-9.11 6.646-9.11 12.964v10.256L8.229 35.37a1.46 1.46 0 0 0-.419 1.026c0 .8.641 1.45 1.432 1.45h29.524c.79 0 1.432-.65 1.432-1.45 0-.385-.151-.754-.42-1.026l-3.629-3.678ZM32.1 33.744H15.906V21.436c0-5.087 3.057-9.23 8.097-9.23 5.04 0 8.097 4.143 8.097 9.23v12.308Z"/>
</svg>
