<svg xmlns="http://www.w3.org/2000/svg" fill="none" viewBox="0 0 48 48">
  <path fill="currentColor" d="M32.727 21.714c3.622 0 6.524-3.063 6.524-6.857S36.349 8 32.727 8c-3.621 0-6.545 3.063-6.545 6.857s2.924 6.857 6.545 6.857Zm-17.454 0c3.622 0 6.523-3.063 6.523-6.857S18.895 8 15.273 8s-6.546 3.063-6.546 6.857 2.924 6.857 6.546 6.857Zm0 4.572c-5.084 0-15.273 2.674-15.273 8v3.428C0 38.971.982 40 2.182 40h26.182c1.2 0 2.181-1.029 2.181-2.286v-3.428c0-5.326-10.189-8-15.272-8Zm17.454 0c-.633 0-1.352.045-2.116.114.043.023.065.069.087.091 2.487 1.898 4.211 4.435 4.211 7.795v3.428c0 .8-.153 1.577-.393 2.286h11.302c1.2 0 2.182-1.029 2.182-2.286v-3.428c0-5.326-10.19-8-15.273-8Z"/>
</svg>
