<svg xmlns="http://www.w3.org/2000/svg" fill="none" viewBox="0 0 48 48">
  <path fill="currentColor" fill-rule="evenodd" d="M40 6H8c-2.22 0-3.98 1.828-3.98 4.108L4 34.757c0 2.28 1.78 4.108 4 4.108h17c.667 0 2-.41 2-2.054 0-1.643-1.333-2.054-2-2.054H10c-1.1 0-2-.925-2-2.054v-10.27h36V10.107C44 7.828 42.22 6 40 6Zm0 8.216H8v-4.108h32v4.108Z" clip-rule="evenodd"/>
  <path fill="currentColor" fill-rule="evenodd" d="M42 33.73c1.1 0 2 .924 2 2.054v6.162c0 1.13-.9 2.054-2 2.054h-8c-1.1 0-2-.924-2-2.054v-6.162c0-1.13.9-2.054 2-2.054v-2.054c0-2.26 1.8-4.108 4-4.108s4 1.848 4 4.108v2.054Zm-4-4.108c-1.1 0-2 .924-2 2.054v2.054h4v-2.054c0-1.13-.9-2.054-2-2.054Z" clip-rule="evenodd"/>
</svg>
