<svg xmlns="http://www.w3.org/2000/svg" fill="none" viewBox="0 0 48 48">
  <path fill="currentColor" d="M24 4C12.96 4 4 12.96 4 24s8.96 20 20 20 20-8.96 20-20S35.04 4 24 4Zm-9.86 32.56C15 34.76 20.24 33 24 33s9.02 1.76 9.86 3.56A15.786 15.786 0 0 1 24 40c-3.72 0-7.14-1.28-9.86-3.44Zm22.58-2.9C33.86 30.18 26.92 29 24 29s-9.86 1.18-12.72 4.66C9.24 30.98 8 27.64 8 24c0-8.82 7.18-16 16-16s16 7.18 16 16c0 3.64-1.24 6.98-3.28 9.66ZM24 12c-3.88 0-7 3.12-7 7s3.12 7 7 7 7-3.12 7-7-3.12-7-7-7Zm0 10c-1.66 0-3-1.34-3-3s1.34-3 3-3 3 1.34 3 3-1.34 3-3 3Z"/>
</svg>
