<svg xmlns="http://www.w3.org/2000/svg" fill="none" viewBox="0 0 48 48">
  <path fill="currentColor" d="m43.387 7.572-7.49 7.467 3.317 3.317c1.314 1.314.375 3.567-1.481 3.567H28.18a2.092 2.092 0 0 1-2.086-2.086v-9.595c0-1.857 2.252-2.795 3.566-1.481l3.317 3.316 7.49-7.467a2.077 2.077 0 0 1 2.941 0c.793.834.793 2.149-.02 2.962ZM7.572 43.387l7.466-7.489 3.317 3.317c1.314 1.314 3.567.375 3.567-1.481V28.18a2.092 2.092 0 0 0-2.086-2.085H10.24c-1.857 0-2.795 2.252-1.481 3.567l3.316 3.316-7.466 7.489a2.077 2.077 0 0 0 0 2.941c.834.793 2.149.793 2.962-.02Z"/>
</svg>
