<svg xmlns="http://www.w3.org/2000/svg" fill="none" viewBox="0 0 48 48">
  <path fill="currentColor" fill-rule="evenodd" d="M8.143 18.615a6.992 6.992 0 0 0-.593.263 6.07 6.07 0 0 0-2.548 2.352C4.338 22.35 4 23.72 4 25.333v6.815c0 1.741.851 3.301 2.377 4.351C7.844 37.51 9.843 38 12.222 38c.617 0 1.497-.169 2.28-.733.885-.637 1.498-1.682 1.498-3.045V21.778c0-.617-.168-1.497-.732-2.28-.621-.862-1.628-1.466-2.939-1.497.41-1.762 1.198-3.797 2.504-5.561C16.657 9.974 19.503 8 24 8c4.496 0 7.343 1.974 9.167 4.44 1.306 1.764 2.094 3.8 2.504 5.561-1.311.031-2.318.635-2.938 1.497a3.984 3.984 0 0 0-.733 2.28v12.444c0 1.363.613 2.408 1.498 3.045a3.985 3.985 0 0 0 2.027.724 3.97 3.97 0 0 1-.35.59C34.646 39.316 33.747 40 32 40a4 4 0 1 0-4.002 4h4c3.052 0 5.153-1.316 6.423-3.081.827-1.149 1.264-2.427 1.455-3.543a7.47 7.47 0 0 0 1.747-.877C43.149 35.45 44 33.89 44 32.15v-6.816c0-1.612-.338-2.982-1.002-4.103a6.07 6.07 0 0 0-2.548-2.352 6.966 6.966 0 0 0-.593-.262c-.375-2.521-1.404-5.757-3.474-8.556C33.89 6.693 29.903 4 24 4c-5.904 0-9.89 2.693-12.383 6.06-2.07 2.799-3.099 6.034-3.474 8.555Zm.3 4.655C8.218 23.65 8 24.28 8 25.333v6.815c0 .333.126.7.645 1.056.555.383 1.602.764 3.355.794V22.001c-.886.006-1.875.061-2.661.454a2.074 2.074 0 0 0-.896.815ZM36 22v11.998c1.753-.03 2.8-.411 3.355-.793.519-.358.645-.724.645-1.057v-6.815c0-1.053-.218-1.684-.443-2.063a2.074 2.074 0 0 0-.896-.814c-.786-.394-1.775-.449-2.661-.455Z" clip-rule="evenodd"/>
</svg>
