<svg xmlns="http://www.w3.org/2000/svg" fill="none" viewBox="0 0 48 48">
  <path fill="currentColor" d="M40 24c0-1.52.86-2.84 2.12-3.52 1.2-.66 1.88-2.02 1.88-3.4V12c0-2.2-1.8-4-4-4H8c-2.2 0-3.98 1.78-3.98 3.98v5.1c0 1.38.66 2.74 1.88 3.38C7.16 21.16 8 22.48 8 24s-.86 2.86-2.12 3.52c-1.2.66-1.88 2.02-1.88 3.4V36c0 2.2 1.8 4 4 4h32c2.2 0 4-1.8 4-4v-5.08c0-1.38-.68-2.74-1.88-3.4-1.26-.68-2.12-2-2.12-3.52Zm-11 8.2L24 29l-5 3.22c-.76.48-1.74-.22-1.5-1.1l1.5-5.76-4.6-3.76c-.7-.58-.34-1.72.58-1.78l5.92-.34 2.16-5.5c.34-.84 1.54-.84 1.86 0l2.16 5.52 5.92.34c.9.06 1.28 1.2.58 1.78l-4.6 3.76 1.52 5.72c.24.9-.74 1.6-1.5 1.1Z"/>
</svg>
