<svg xmlns="http://www.w3.org/2000/svg" fill="none" viewBox="0 0 48 48">
  <path fill="currentColor" fill-rule="evenodd" d="M4.57 5.971C4.57 4.883 5.44 4 6.511 4h5.83c.505 0 .99.2 1.352.556L24 14.694 34.306 4.556A1.928 1.928 0 0 1 35.658 4h5.83c1.073 0 1.943.883 1.943 1.971v6.69c0 .533-.213 1.044-.59 1.415l-9.735 9.576 5.848 5.752-.092.096 1.82-1.846c.76-.77 1.99-.77 2.749 0a1.99 1.99 0 0 1 0 2.787l-5.024 5.097 5.024 5.097c.759.77.759 2.018 0 2.788s-1.99.77-2.748 0l-5.025-5.097-5.024 5.097c-.759.77-1.989.77-2.748 0a1.991 1.991 0 0 1 0-2.788l2.104-2.134L24 32.61l-5.99 5.892 2.104 2.134c.759.77.759 2.018 0 2.788s-1.99.77-2.748 0l-5.024-5.097-5.025 5.097c-.759.77-1.99.77-2.748 0a1.991 1.991 0 0 1 0-2.788l5.025-5.097-5.025-5.097a1.991 1.991 0 0 1 0-2.787c.759-.77 1.99-.77 2.748 0l1.82 1.847-.091-.097 5.848-5.752-9.734-9.576a1.985 1.985 0 0 1-.59-1.415v-6.69Zm13.115 14.935 3.524-3.466-9.655-9.498H8.455v3.885l9.23 9.079Zm-5.892 11.288 3.47 3.52 24.282-23.887V7.942h-3.1L11.794 32.194Zm14.998-2.33 5.947 5.85 3.47-3.52-5.893-5.797-3.524 3.467Z" clip-rule="evenodd"/>
</svg>
