<svg xmlns="http://www.w3.org/2000/svg" fill="none" viewBox="0 0 48 48">
  <path fill="currentColor" d="M24 14.343c5.018 0 9.09 3.912 9.09 8.732 0 .89-.18 1.746-.436 2.549l5.564 5.344c2.527-2.148 4.527-4.838 5.782-7.911-3.145-7.648-10.91-13.08-20-13.08-2.31 0-4.527.35-6.618.996l3.945 3.79c.855-.245 1.746-.42 2.673-.42ZM7.11 8.511a1.69 1.69 0 0 0 0 2.462l3.58 3.44C7.746 16.666 5.4 19.634 4 23.075 7.145 30.74 14.91 36.17 24 36.17c2.764 0 5.4-.523 7.836-1.432l4.946 4.75a1.864 1.864 0 0 0 2.564 0 1.691 1.691 0 0 0 0-2.462L9.69 8.511a1.887 1.887 0 0 0-2.582 0ZM24 31.806c-5.018 0-9.09-3.912-9.09-8.732 0-1.344.326-2.619.89-3.737l2.854 2.742a5.773 5.773 0 0 0-.108.995c0 2.9 2.436 5.24 5.454 5.24.364 0 .69-.053 1.036-.123l2.855 2.742a9.047 9.047 0 0 1-3.891.873Zm5.4-9.308c-.273-2.445-2.273-4.348-4.8-4.61l4.8 4.61Z"/>
</svg>
